<svg xmlns="http://www.w3.org/2000/svg" xmlns:svg="http://www.w3.org/2000/svg" width="700" height="700" version="1.1" viewBox="0 0 600 600"><path fill="none" stroke="#000" stroke-width="5" d="M100,100 l0,400 M200,100 l0,400 M300,100 l0,400 M400,100 l0,400 M500,100 l0,400 M100,100 l400,0 M100,200 l400,0 M100,300 l400,0 M100,400 l400,0 M100,500 l400,0"/><text x="50" y="175" fill="#00F" stroke="none" font-family="Arial,sans-serif" font-size="50" text-anchor="middle">0</text><text x="50" y="275" fill="#00F" stroke="none" font-family="Arial,sans-serif" font-size="50" text-anchor="middle">1</text><text x="50" y="375" fill="#00F" stroke="none" font-family="Arial,sans-serif" font-size="50" text-anchor="middle">2</text><text x="50" y="475" fill="#00F" stroke="none" font-family="Arial,sans-serif" font-size="50" text-anchor="middle">3</text><text x="150" y="75" fill="#00F" stroke="none" font-family="Arial,sans-serif" font-size="50" text-anchor="middle">1</text><text x="250" y="75" fill="#00F" stroke="none" font-family="Arial,sans-serif" font-size="50" text-anchor="middle">2</text><text x="350" y="75" fill="#00F" stroke="none" font-family="Arial,sans-serif" font-size="50" text-anchor="middle">3</text><text x="450" y="75" fill="#00F" stroke="none" font-family="Arial,sans-serif" font-size="50" text-anchor="middle">4</text><rect width="100" height="100" x="100" y="100" fill="#C0FFC0" stroke="#000" stroke-width="5"/><rect width="100" height="100" x="100" y="200" fill="#C0FFC0" stroke="#000" stroke-width="5"/><rect width="100" height="100" x="100" y="300" fill="#C0FFC0" stroke="#000" stroke-width="5"/><rect width="100" height="100" x="100" y="400" fill="#C0FFC0" stroke="#000" stroke-width="5"/><rect width="100" height="100" x="200" y="100" fill="#C0FFC0" stroke="#000" stroke-width="5"/><rect width="100" height="100" x="200" y="200" fill="#C0FFC0" stroke="#000" stroke-width="5"/><rect width="100" height="100" x="200" y="300" fill="#C0FFC0" stroke="#000" stroke-width="5"/><rect width="100" height="100" x="200" y="400" fill="#C0FFC0" stroke="#000" stroke-width="5"/><rect width="100" height="100" x="300" y="100" fill="#C0FFC0" stroke="#000" stroke-width="5"/><rect width="100" height="100" x="300" y="200" fill="#C0FFC0" stroke="#000" stroke-width="5"/><rect width="100" height="100" x="300" y="300" fill="#C0FFC0" stroke="#000" stroke-width="5"/><rect width="100" height="100" x="300" y="400" fill="#C0FFC0" stroke="#000" stroke-width="5"/><rect width="100" height="100" x="400" y="100" fill="#C0FFC0" stroke="#000" stroke-width="5"/><rect width="100" height="100" x="400" y="200" fill="#C0FFC0" stroke="#000" stroke-width="5"/><rect width="100" height="100" x="400" y="300" fill="#C0FFC0" stroke="#000" stroke-width="5"/><rect width="100" height="100" x="400" y="400" fill="#C0FFC0" stroke="#000" stroke-width="5"/></svg>